<svg id="Layer_1" data-name="Layer 1" xmlns="http://www.w3.org/2000/svg" viewBox="0 0 346.48 171.89"><defs><style>.cls-1{fill:#fff;}</style></defs><title>jason</title><path class="cls-1" d="M14.11,82.65c7.07,0,16.6-1.55,21.84-8.92,3.69-5.11,3.69-10.49,3.69-16.19V3H22.72V52.44c0,6,0,8.74-2.25,11-.88.93-3,2.5-7.52,2.5a28.24,28.24,0,0,1-6.27-.84L4,64.52V81.44l1.92.37A38.47,38.47,0,0,0,14.11,82.65Z" transform="translate(-1.39 -1.08)"/><path class="cls-1" d="M69.35,66.38H95.29l4.36,14.67h18.21L91.21,3H73.11L46.79,81.05H65ZM74,51.15l8.39-27.83,8.31,27.83Z" transform="translate(-1.39 -1.08)"/><path class="cls-1" d="M188.82,57.33c0-18.42-17.9-22.19-25.53-23.79l-7.81-1.71-.13,0c-7.53-1.41-12.47-2.69-12.47-7.43,0-5,6.36-7.64,12.64-7.64,11,0,15.62,6.71,18.09,10.32l1,1.48,13.92-10.44-.88-1.2c-7.82-10.64-18.1-15.82-31.4-15.82-18.64,0-31.16,10-31.16,24.89,0,12.41,8.51,17.72,13.58,19.78a58.69,58.69,0,0,0,8.44,2.43l10.28,2.22c6.53,1.53,6.89,1.66,8.4,2.23l.09,0c2.82,1.16,4.7,2.63,4.7,6.05s-1.83,5.74-5.44,7.22a20,20,0,0,1-7.52,1.17c-15,0-20.3-8.05-22-10.7l-.85-1.3-14.23,10,.74,1.2c5.52,9,14.09,13,20.33,14.91A51.47,51.47,0,0,0,155.42,83C170.83,83,188.82,76.25,188.82,57.33Z" transform="translate(-1.39 -1.08)"/><path class="cls-1" d="M235.27,83c22,0,37.53-16.83,37.65-40.94.05-12.35-3.86-22.84-11.31-30.32A36.52,36.52,0,0,0,235.48,1.08c-21.4,0-37.54,17.65-37.54,41.05,0,11.18,3.49,20.88,10.36,28.84C215.4,79.16,224,83,235.27,83Zm.11-66a18,18,0,0,1,13.36,5.46c4.73,4.83,7.33,12.56,7.15,21.19C255.56,62.07,243,67,235.69,67c-12.14,0-20.3-10.25-20.3-25.51C215.4,26.81,223.43,16.94,235.37,16.94Z" transform="translate(-1.39 -1.08)"/><polygon class="cls-1" points="301.38 31.22 331.82 79.98 346.38 79.98 346.38 1.91 329.5 1.91 331.08 50.96 300.41 1.91 285.43 1.91 285.43 79.98 302.17 79.98 301.38 31.22"/><path class="cls-1" d="M27.71,93,1.39,171.05h18.2L24,156.38H49.89l4.36,14.67H72.46L45.81,93Zm17.56,48.16H28.57L37,113.32Z" transform="translate(-1.39 -1.08)"/><path class="cls-1" d="M114.59,123.54l-7.81-1.71-.13,0c-7.53-1.41-12.47-2.69-12.47-7.43,0-5,6.36-7.64,12.64-7.64,11,0,15.62,6.71,18.09,10.32l1,1.48,13.92-10.44-.88-1.2c-7.82-10.64-18.1-15.82-31.4-15.82-18.64,0-31.16,10-31.16,24.89,0,12.41,8.51,17.72,13.58,19.78a58.69,58.69,0,0,0,8.44,2.43l10.28,2.22c6.53,1.53,6.89,1.66,8.4,2.23l.09,0c2.82,1.16,4.7,2.63,4.7,6.05s-1.83,5.74-5.44,7.22A20,20,0,0,1,109,157.1c-15,0-20.3-8.05-22-10.7l-.85-1.3-14.23,10,.74,1.2c5.52,9,14.09,13,20.33,14.91a51.47,51.47,0,0,0,13.8,1.76c15.41,0,33.4-6.71,33.4-25.64C140.12,128.91,122.22,125.15,114.59,123.54Z" transform="translate(-1.39 -1.08)"/><polygon class="cls-1" points="199.97 91.91 141.89 91.91 141.89 107.67 162.2 107.67 162.2 169.98 179.24 169.98 179.24 107.67 199.97 107.67 199.97 91.91"/><path class="cls-1" d="M238.88,91.08c-21.4,0-37.54,17.65-37.54,41.05,0,11.18,3.49,20.88,10.36,28.84,7.1,8.19,15.67,12,27,12,22,0,37.53-16.83,37.65-40.94.05-12.35-3.86-22.84-11.31-30.32A36.52,36.52,0,0,0,238.88,91.08Zm-.11,15.87a18,18,0,0,1,13.36,5.46c4.73,4.83,7.33,12.56,7.15,21.19C259,152.07,246.44,157,239.1,157c-12.14,0-20.3-10.25-20.3-25.51C218.8,116.81,226.83,106.94,238.78,106.94Z" transform="translate(-1.39 -1.08)"/><polygon class="cls-1" points="329.61 91.91 331.19 140.96 300.52 91.91 285.54 91.91 285.54 169.98 302.28 169.98 301.49 121.22 331.93 169.98 346.48 169.98 346.48 91.91 329.61 91.91"/></svg>