<svg width="813px" height="66px" viewBox="0 0 813 66" version="1.1" xmlns="http://www.w3.org/2000/svg" xmlns:xlink="http://www.w3.org/1999/xlink">
    <!-- Generator: Sketch 44.1 (41455) - http://www.bohemiancoding.com/sketch -->
    <g id="Page-1" stroke="none" stroke-width="1" fill="none" fill-rule="evenodd">
        <g id="everything2">
            <polygon id="Fill-1" fill="#33CCCC" points="0 0.1947 0 65.3497 63.884 65.3497 63.884 57.7297 8.694 57.7297 8.694 35.3617 61.441 35.3617 61.441 27.7417 8.694 27.7417 8.694 7.8137 63.787 7.8137 63.787 0.1947"></polygon>
            <polygon id="Fill-2" fill="#36D2CE" points="150.9219 0.1947 119.4689 57.3387 116.3419 57.3387 84.1079 0.1947 74.5349 0.1947 111.2639 65.3497 124.6459 65.3497 160.5929 0.1947"></polygon>
            <polygon id="Fill-3" fill="#36D2CE" points="171.8307 0.1947 171.8307 65.3497 235.7147 65.3497 235.7147 57.7297 180.5247 57.7297 180.5247 35.3617 233.2717 35.3617 233.2717 27.7417 180.5247 27.7417 180.5247 7.8137 235.6177 7.8137 235.6177 0.1947"></polygon>
            <path d="M290.812,32.6257 C304.878,32.6257 306.929,32.5277 309.859,31.7467 C314.646,30.4767 316.209,27.4477 316.209,19.7307 C316.209,15.1407 315.036,11.5267 313.083,10.1597 C310.446,8.2057 306.44,7.8137 290.812,7.8137 L258.87,7.8137 L258.87,32.6257 L290.812,32.6257 Z M250.176,0.1947 L290.812,0.1947 C307.222,0.3897 307.319,0.3897 311.813,0.9767 C317.087,1.6597 320.995,4.1997 323.046,8.2057 C324.512,11.2327 325.098,14.4567 325.098,19.8287 C325.098,31.8447 322.949,35.2637 314.352,37.0207 C322.558,38.8777 324.219,42.2967 323.925,56.0697 L323.925,65.3487 L315.232,65.3487 L315.232,59.0977 C315.33,47.5707 315.036,45.6177 312.595,42.9797 C309.468,40.4397 308.297,40.2447 290.812,40.2447 L258.87,40.2447 L258.87,65.3487 L250.176,65.3487 L250.176,0.1947 Z" id="Fill-4" fill="#36D2CE"></path>
            <polygon id="Fill-6" fill="#36D2CE" points="342.7816 0.195 374.2346 31.453 404.7116 0.195 416.8246 0.195 378.6316 38.682 378.6316 65.349 369.9366 65.349 369.9366 38.682 331.0596 0.195"></polygon>
            <polygon id="Fill-8" fill="#36D2CE" points="502.399 0.195 502.399 7.814 469.872 7.814 469.872 65.349 461.178 65.349 461.178 7.814 428.454 7.814 428.454 0.195"></polygon>
            <polygon id="Fill-10" fill="#36D2CE" points="523.8942 0.195 523.8942 27.742 583.8702 27.742 583.8702 0.195 592.5632 0.195 592.5632 65.349 583.8702 65.349 583.8702 35.361 523.8942 35.361 523.8942 65.349 515.2002 65.349 515.2002 0.195"></polygon>
            <polygon id="Fill-12" fill="#36D2CE" points="609.175 65.3485 617.869 65.3485 617.869 0.1945 609.175 0.1945"></polygon>
            <polygon id="Fill-14" fill="#36D2CE" points="650.886 0.195 707.834 57.339 709.886 57.339 709.886 0.195 718.579 0.195 718.579 65.349 703.829 65.349 647.076 8.401 645.123 8.401 645.123 65.349 636.429 65.349 636.429 0.195"></polygon>
            <path d="M812.6523,32.3319 C812.5543,44.8349 812.4573,48.2539 811.6763,51.9669 C810.3083,58.6089 807.8653,61.5399 801.9063,63.4929 C798.0003,64.7629 788.6223,65.4469 774.8503,65.4469 C762.7363,65.4469 751.8933,64.9579 746.8143,64.1759 C740.5633,63.1999 736.1673,59.4889 734.8003,53.9209 C733.6273,49.1339 732.9433,41.7099 732.9433,32.8209 C732.9433,24.2249 733.6273,16.5089 734.8973,11.7219 C736.4603,5.6649 740.5633,2.3439 747.5953,1.2699 C752.9683,0.3899 760.6853,-0.0001 771.1373,-0.0001 C780.1243,-0.0001 793.7023,0.5859 797.7063,1.1729 C803.4703,1.9539 808.3543,5.1769 810.3083,9.5729 C811.6763,12.5029 812.0663,14.9449 812.1633,20.6109 L803.2743,20.6109 C803.1763,14.9449 802.5903,12.5029 801.1253,11.0379 C799.4653,9.3769 796.9253,8.7919 790.0873,8.3029 C786.4733,8.0089 778.0723,7.8139 772.7003,7.8139 C754.4333,7.8139 747.6933,8.5959 745.0573,11.1359 C742.6143,13.3819 741.8333,18.4609 741.8333,31.5509 C741.8333,40.3429 742.3213,48.0589 743.0053,50.7939 C744.7633,57.0459 747.7923,57.6319 778.2673,57.6319 C793.5063,57.6319 798.9763,56.7539 801.5163,54.1159 C803.2743,52.2599 803.7633,49.4269 803.9583,39.9509 L769.9643,39.9509 L769.9643,32.3319 L812.6523,32.3319 Z" id="Fill-15" fill="#36D2CE"></path>
                            </g>
                        </g>

                    </svg>
