<svg xmlns="http://www.w3.org/2000/svg" width="63.654" height="63.654" viewBox="0 0 63.654 63.654"><defs><style>.a{fill:#454545;fill-rule:evenodd;}</style></defs><path class="a" d="M31.827,5.658c8.487,0,9.548,0,12.731.354a16.4,16.4,0,0,1,6.012,1.061,12.419,12.419,0,0,1,6.012,6.012A16.4,16.4,0,0,1,57.642,19.1c0,3.183.354,4.244.354,12.731s0,9.548-.354,12.731a16.4,16.4,0,0,1-1.061,6.012,12.419,12.419,0,0,1-6.012,6.012,16.4,16.4,0,0,1-6.012,1.061c-3.183,0-4.244.354-12.731.354s-9.548,0-12.731-.354a16.4,16.4,0,0,1-6.012-1.061,12.419,12.419,0,0,1-6.012-6.012,16.4,16.4,0,0,1-1.061-6.012c0-3.183-.354-4.244-.354-12.731s0-9.548.354-12.731a16.4,16.4,0,0,1,1.061-6.012A12.7,12.7,0,0,1,9.548,9.548a5.979,5.979,0,0,1,3.536-2.475A16.4,16.4,0,0,1,19.1,6.012c3.183-.354,4.244-.354,12.731-.354m0-5.658c-8.487,0-9.9,0-13.084.354a21.832,21.832,0,0,0-7.78,1.415A13.844,13.844,0,0,0,5.3,5.3a13.844,13.844,0,0,0-3.536,5.658C.707,13.084.354,15.206.354,18.742,0,21.925,0,23.34,0,31.827s0,9.9.354,13.084a21.832,21.832,0,0,0,1.415,7.78A13.844,13.844,0,0,0,5.3,58.349a13.844,13.844,0,0,0,5.658,3.536,21.832,21.832,0,0,0,7.78,1.415c3.183.354,4.6.354,13.084.354s9.9,0,13.084-.354a21.832,21.832,0,0,0,7.78-1.415,14.837,14.837,0,0,0,9.194-9.194,21.832,21.832,0,0,0,1.415-7.78c0-3.536.354-4.6.354-13.084s0-9.9-.354-13.084a21.832,21.832,0,0,0-1.415-7.78A13.844,13.844,0,0,0,58.349,5.3a13.844,13.844,0,0,0-5.658-3.536A21.832,21.832,0,0,0,44.911.354C41.729,0,40.314,0,31.827,0m0,15.56A16.005,16.005,0,0,0,15.56,31.827,16.267,16.267,0,1,0,31.827,15.56m0,26.876A10.42,10.42,0,0,1,21.218,31.827,10.42,10.42,0,0,1,31.827,21.218,10.42,10.42,0,0,1,42.436,31.827,10.42,10.42,0,0,1,31.827,42.436M48.8,10.963a3.89,3.89,0,1,0,3.89,3.89,3.924,3.924,0,0,0-3.89-3.89"/></svg>