<svg xmlns="http://www.w3.org/2000/svg" viewBox="0 0 181.08 70.8"><defs><style>.cls-1{isolation:isolate;}.cls-2{fill:#fff;}</style></defs><title>logo-white</title><g id="Layer_2" data-name="Layer 2"><g id="Layer_1-2" data-name="Layer 1"><g class="cls-1"><path class="cls-2" d="M8.77,37.92v8.77h22.7a1.09,1.09,0,0,1,.9.9v5.54a1.11,1.11,0,0,1-.9.91H.77A.84.84,0,0,1,0,53.26V16.12a.83.83,0,0,1,.77-.77H31.08a1.08,1.08,0,0,1,.9.9v5.54a1.09,1.09,0,0,1-.9.91H8.77v7.87H29.15a1.09,1.09,0,0,1,.9.9V37a1.11,1.11,0,0,1-.9.91ZM22.5,2a2.14,2.14,0,0,1,.71,1.55,2.55,2.55,0,0,1-1,2.06l-7.16,6a1.62,1.62,0,0,1-1.28.38h-3.1c-.39,0-.58-.19-.58-.45a1.52,1.52,0,0,1,.39-.9L17,1.42A2.65,2.65,0,0,1,19.28,0a2.86,2.86,0,0,1,1.81.64Z"/><path class="cls-2" d="M35.73,28.7a1.57,1.57,0,0,1,1.09-1.1h4.84c.64,0,1,.39,1.22,1l.78,2.06h.26A11.2,11.2,0,0,1,52.56,27,8.82,8.82,0,0,1,60,31.15h.19A12.46,12.46,0,0,1,69.64,27c6.19,0,9.42,4.13,9.42,10.32V52.94A1.57,1.57,0,0,1,78,54H71.9a1.55,1.55,0,0,1-1.09-1.1V37.72a3.3,3.3,0,0,0-3.49-3.67,6.59,6.59,0,0,0-5.8,4.38V52.94a1.57,1.57,0,0,1-1.1,1.1H54.36a1.57,1.57,0,0,1-1.09-1.1V37.72a3.31,3.31,0,0,0-3.49-3.67A6.59,6.59,0,0,0,44,38.43V52.94a1.57,1.57,0,0,1-1.1,1.1H36.82a1.57,1.57,0,0,1-1.09-1.1Z"/><path class="cls-2" d="M87.12,14.7c2.9,0,4.77,1.87,4.77,4.13S90,23,87.12,23s-4.77-1.87-4.77-4.13S84.22,14.7,87.12,14.7Zm4.13,38.24a1.57,1.57,0,0,1-1.1,1.1H84.09A1.57,1.57,0,0,1,83,52.94V28.7a1.57,1.57,0,0,1,1.09-1.1h6.06a1.57,1.57,0,0,1,1.1,1.1Z"/><path class="cls-2" d="M97.7,56.1V56a6.42,6.42,0,0,1-2.9-5.67A8.66,8.66,0,0,1,97.89,44a10.12,10.12,0,0,1-2.06-6.38c0-5.81,4.51-10.71,12.06-10.71a11.79,11.79,0,0,1,8,2.58h.2A7.14,7.14,0,0,1,121.94,27c1,0,1.42.39,1.42.78V33a.76.76,0,0,1-.71.65c-.32,0-.51-.07-1.09-.07a3.49,3.49,0,0,0-2.26.71,10.5,10.5,0,0,1,.58,3.42c0,6.12-4.38,10.7-12,10.7a13.48,13.48,0,0,1-5.29-1,3.53,3.53,0,0,0-.84,2.13c0,1.22.9,2,3.23,2h6.83c7.61,0,11.09,4.32,11.09,8.9,0,5.41-4.06,10.44-14.06,10.44h-.25c-8.64,0-13.54-4-13.54-8.83A8.1,8.1,0,0,1,97.7,56.1Zm7.22,1.68a3.41,3.41,0,0,0-1.61,2.9c0,2,2.06,3.55,5.16,3.55h.64c3.94,0,5.55-1.75,5.55-3.68,0-1.42-.84-2.77-3.81-2.77Zm2.9-16a4.14,4.14,0,1,0,0-8.26,4.14,4.14,0,1,0,0,8.26Z"/><path class="cls-2" d="M133.49,31.27A10,10,0,0,1,141.94,27c5,0,8.12,3.23,8.12,9v2.71a1.57,1.57,0,0,1-1.1,1.1H142.9a1.57,1.57,0,0,1-1.09-1.1V37.14c0-2.13-1.23-3.22-2.91-3.22-2.25,0-4.64,2.19-5.48,4.64V52.94a1.57,1.57,0,0,1-1.09,1.1h-6.06a1.57,1.57,0,0,1-1.1-1.1V28.7a1.57,1.57,0,0,1,1.1-1.1h5c1,0,1.41,2.32,1.93,3.67Z"/><path class="cls-2" d="M159.8,43.08c.52,3.35,3.8,4.64,8.06,4.64a16.47,16.47,0,0,0,8.06-2.45,2.8,2.8,0,0,1,1.48-.52,1.3,1.3,0,0,1,1.16.71l1.62,3.16a2.43,2.43,0,0,1,.32,1c0,.45-.26.84-.84,1.29-2.64,2.07-6.51,3.74-12.12,3.74-9.16,0-16.25-5-16.25-13.86,0-7.74,5.8-13.87,15.34-13.87,9.81,0,14.45,5.61,14.45,12.19a27.61,27.61,0,0,1-.32,3.94Zm.13-5.55h12.9c-.13-2.26-2.13-4.26-6.13-4.26C163.54,33.27,160.7,34.69,159.93,37.53ZM176.24,11.8a2.18,2.18,0,0,1,.71,1.55,2.55,2.55,0,0,1-1,2.06l-7.16,6a1.63,1.63,0,0,1-1.29.38h-3.09c-.39,0-.58-.19-.58-.45a1.56,1.56,0,0,1,.38-.9l6.52-9.22A2.65,2.65,0,0,1,173,9.8a2.76,2.76,0,0,1,1.8.65Z"/></g></g></g></svg>