<?xml version="1.0" encoding="utf-8"?>
<!-- Generator: Adobe Illustrator 24.0.1, SVG Export Plug-In . SVG Version: 6.00 Build 0)  -->
<svg version="1.1" id="Layer_1" xmlns="http://www.w3.org/2000/svg" xmlns:xlink="http://www.w3.org/1999/xlink" x="0px" y="0px"
	 viewBox="0 0 138.8 30" style="enable-background:new 0 0 138.8 30;" xml:space="preserve">
<style type="text/css">
	.st0{fill:url(#crzra_1_);}
	.st1{fill:#7B767A;}
</style>
<g>
	<g transform="translate(-30 -20)">
		<g>
			<g>
				<g>
					
						<linearGradient id="crzra_1_" gradientUnits="userSpaceOnUse" x1="61.04" y1="16.0644" x2="77.03" y2="16.0644" gradientTransform="matrix(1 0 0 -1 -30 52)">
						<stop  offset="0" style="stop-color:#E93E3A"/>
						<stop  offset="0.1" style="stop-color:#ED683C"/>
						<stop  offset="0.3" style="stop-color:#F3903F"/>
						<stop  offset="0.7" style="stop-color:#FDC70C"/>
						<stop  offset="1" style="stop-color:#FFF33B"/>
					</linearGradient>
					<path id="crzra" class="st0" d="M39.4,38.5c-1.4-3.1,0.2-6.5,2.3-8.3c3.4-2.9,8.8-3.7,11.4-0.9c3.9,4.2,0.8,10.5-5.1,14.5
						C42.9,47,36.9,49,30,49c5.6-1.2,11.9-3.4,15.6-6.7c3-2.7,4-6.4,2.2-9.4C45.8,29.5,39.5,32,39.4,38.5z M47.1,33.4
						c1.4,3.1-0.2,6.5-2.3,8.3c-3.4,2.9-8.8,3.7-11.3,0.9c-4-4.2-0.8-10.5,5.1-14.5c5-3.3,11-5.3,17.8-5.3
						c-5.6,1.3-11.9,3.4-15.6,6.7c-3,2.7-4,6.4-2.2,9.4C40.7,42.4,47,39.9,47.1,33.4z"/>
				</g>
			</g>
		</g>
		<g>
			<g>
				<g>
					<path id="crzrc" class="st1" d="M70.7,38.2c0,0.8-0.2,1.5-0.7,2.2c-0.5,0.6-1,1.1-1.9,1.5c-0.7,0.3-1.6,0.5-2.5,0.5
						c-0.5,0-1-0.1-1.4-0.2c-1.5-0.3-3-1-4.2-2l1.6-1.8c1.6,1.4,3,1.6,3.8,1.6c0.6,0,1.1-0.1,1.6-0.3c0.4-0.2,1.1-0.6,1.1-1.6
						s-0.8-1.5-2.7-1.8c-0.1,0-2.4-0.5-3.3-0.9c-1.3-0.7-2-1.8-2-3.2c0-0.8,0.2-1.5,0.7-2.1c0.4-0.5,0.9-1,1.7-1.3
						c0.8-0.3,1.6-0.5,2.4-0.5c0.3,0,0.7,0,1,0.1c1.4,0.2,2.7,0.8,3.7,1.7l-1.5,1.8c-1.4-1.1-2.6-1.2-3.1-1.2s-1.1,0.1-1.5,0.3
						c-0.6,0.3-1,0.8-1,1.4c0,0.9,0.7,1.4,2.6,1.8c0,0,2.5,0.5,3.2,0.9c0.8,0.4,1.1,0.8,1.5,1.2C70.4,36.6,70.7,37.4,70.7,38.2z"/>
				</g>
			</g>
			<g>
				<g>
					<path id="crzrd" class="st1" d="M85.9,39.6c-0.2,0.3-0.5,0.6-0.8,0.9c-1.4,1.4-3.2,2.1-5.1,2.1c-1.9,0-3.8-0.7-5.2-2.1
						c-1.4-1.4-2.1-3.2-2.1-5.1c0-1.9,0.8-3.8,2.1-5.1c1.4-1.4,3.2-2.1,5.2-2.1s3.8,0.7,5.1,2.1c0.3,0.3,0.5,0.5,0.7,0.8l-2.1,1.5
						c-0.9-1.1-2.2-1.9-3.8-1.9c-2.6,0-4.7,2.1-4.7,4.7c0,2.6,2.1,4.7,4.7,4.7c1.6,0,2.9-0.8,3.8-2L85.9,39.6z"/>
				</g>
			</g>
			<g>
				<g>
					<path id="crzre" class="st1" d="M101.7,34.8v7.4h-2.6v-7.4c0-2.3-1.8-4.1-4.1-4.1c-2.3,0-4.1,1.9-4.1,4.1v7.4h-2.6V20h2.6v9.7
						c1.2-0.9,2.6-1.6,4.1-1.6c1.8,0,3.5,0.7,4.8,1.9C101,31.3,101.7,33,101.7,34.8L101.7,34.8z"/>
				</g>
			</g>
			<g>
				<g>
					<path id="crzrf" class="st1" d="M116.1,35.3c0-2.6-2.1-4.6-4.7-4.6s-4.7,2.1-4.7,4.6c0,2.6,2.1,4.7,4.7,4.7
						C114,40,116.1,37.9,116.1,35.3L116.1,35.3z M118.7,35.3c0,1.9-0.8,3.7-2.2,5.1c-1.4,1.4-3.2,2.1-5.1,2.1
						c-1.9,0-3.8-0.8-5.2-2.1c-1.4-1.4-2.1-3.2-2.1-5.1s0.8-3.8,2.1-5.1c1.4-1.3,3.2-2.1,5.2-2.1c1.9,0,3.8,0.7,5.1,2.1
						C117.9,31.5,118.7,33.4,118.7,35.3L118.7,35.3z"/>
				</g>
			</g>
			<g>
				<g>
					<path id="crzrg" class="st1" d="M121.5,42.2V20h2.6v22.2H121.5z"/>
				</g>
			</g>
			<g>
				<g>
					<path id="crzrh" class="st1" d="M138.8,35.3c0-2.6-2.1-4.7-4.7-4.7c-2.6,0-4.7,2.1-4.7,4.7c0,2.6,2.1,4.7,4.7,4.7
						C136.7,40,138.8,37.9,138.8,35.3z M138.8,28.4h2.6v13.9h-2.6v-1.6c-1.3,1.1-2.9,1.9-4.7,1.9c-1.9,0-3.8-0.7-5.2-2.1
						c-1.4-1.4-2.1-3.2-2.1-5.1c0-1.9,0.8-3.8,2.1-5.1c1.4-1.4,3.2-2.1,5.2-2.1c1.7,0,3.4,0.8,4.7,1.9V28.4z"/>
				</g>
			</g>
			<g>
				<g>
					<path id="crzri" class="st1" d="M147.8,29.8c0.9-1,3.5-1.7,5.1-1.7l-0.6,2.6c-2.4,0-4.4,1.8-4.4,4.2v7.4h-2.6V28.4h2.6V29.8z"
						/>
				</g>
			</g>
			<g>
				<g>
					<path id="crzrj" class="st1" d="M165.7,35.3c0-2.6-2.1-4.6-4.7-4.6s-4.7,2.1-4.7,4.6c-0.1,1.7,0.8,3.3,2.3,4.2
						c1.5,0.9,3.3,0.9,4.8,0C164.9,38.6,165.8,37,165.7,35.3L165.7,35.3z M168.4,35.3c0,1.9-0.8,3.7-2.2,5.1
						c-1.4,1.4-3.2,2.1-5.1,2.1c-1.9,0-3.8-0.8-5.2-2.1s-2.1-3.2-2.1-5.1s0.8-3.8,2.1-5.1c1.4-1.3,3.2-2.1,5.2-2.1
						c2,0,3.8,0.7,5.1,2.1C167.6,31.5,168.4,33.4,168.4,35.3L168.4,35.3z"/>
				</g>
			</g>
		</g>
	</g>
</g>
</svg>
