<?xml version="1.0" encoding="utf-8"?>
<!-- Generator: Adobe Illustrator 24.0.1, SVG Export Plug-In . SVG Version: 6.00 Build 0)  -->
<svg version="1.1" id="Layer_1" xmlns="http://www.w3.org/2000/svg" xmlns:xlink="http://www.w3.org/1999/xlink" x="0px" y="0px"
	 viewBox="0 0 1280 1024" style="enable-background:new 0 0 1280 1024;" xml:space="preserve">
<style type="text/css">
	.st0{font-family:'EksellDisplaySmall';}
	.st1{font-size:64.4884px;}
	.st2{letter-spacing:-1;}
	.st3{fill:#FFFFFF;}
	.st4{enable-background:new    ;}
	.st5{font-family:'Bicyclette-Bold';}
	.st6{font-family:'RegulatorNova-DemiBold';}
	.st7{fill:none;}
	.st8{font-family:'ArialMT';}
	.st9{font-size:11.9993px;}
	.st10{font-size:36px;}
	.st11{letter-spacing:-18;}
	.st12{font-size:36.0022px;}
	.st13{font-size:12px;}
	.st14{fill:none;stroke:#202020;stroke-miterlimit:10;}
	.st15{fill:#202020;}
</style>
<text transform="matrix(1 0 0 1 162.3086 253.8477)" class="st0 st1 st2">Émigré</text>
<text transform="matrix(1 0 0 1 162.3086 327.8477)" class="st3 st0 st1 st2">Émigré</text>
<g class="st4">
	<path d="M175.7,486.7v8.8h22.7c0.4,0,0.9,0.5,0.9,0.9v5.5c0,0.4-0.5,0.9-0.9,0.9h-30.7c-0.4,0-0.8-0.4-0.8-0.8v-37.1
		c0-0.4,0.4-0.8,0.8-0.8H198c0.4,0,0.9,0.5,0.9,0.9v5.5c0,0.4-0.5,0.9-0.9,0.9h-22.3v7.9H196c0.4,0,0.9,0.5,0.9,0.9v5.5
		c0,0.4-0.5,0.9-0.9,0.9H175.7z M189.4,450.8c0.5,0.5,0.7,1,0.7,1.5c0,0.6-0.2,1.4-1,2.1l-7.2,6c-0.4,0.3-0.6,0.4-1.3,0.4h-3.1
		c-0.4,0-0.6-0.2-0.6-0.5c0-0.2,0.1-0.5,0.4-0.9l6.5-9.2c0.6-1,1.4-1.4,2.3-1.4c0.7,0,1.4,0.3,1.8,0.6L189.4,450.8z"/>
	<path d="M202.6,477.5c0-0.4,0.7-1.1,1.1-1.1h4.8c0.6,0,1,0.4,1.2,1l0.8,2.1h0.3c2.8-3,5.8-3.7,8.6-3.7c3,0,6,1.6,7.5,4.2h0.2
		c2.7-2.9,5.9-4.2,9.4-4.2c6.2,0,9.4,4.1,9.4,10.3v15.7c0,0.4-0.7,1.1-1.1,1.1h-6.1c-0.4,0-1.1-0.7-1.1-1.1v-15.2
		c0-2.6-1.6-3.7-3.5-3.7c-2.4,0-4.8,1.8-5.8,4.4v14.5c0,0.4-0.7,1.1-1.1,1.1h-6.1c-0.4,0-1.1-0.7-1.1-1.1v-15.2
		c0-2.5-1.5-3.7-3.5-3.7c-2.4,0-4.8,1.8-5.8,4.4v14.5c0,0.4-0.7,1.1-1.1,1.1h-6.1c-0.4,0-1.1-0.7-1.1-1.1V477.5z"/>
	<path d="M254,463.5c2.9,0,4.8,1.9,4.8,4.1s-1.9,4.1-4.8,4.1s-4.8-1.9-4.8-4.1S251.1,463.5,254,463.5z M258.1,501.8
		c0,0.4-0.7,1.1-1.1,1.1H251c-0.4,0-1.1-0.7-1.1-1.1v-24.2c0-0.4,0.7-1.1,1.1-1.1h6.1c0.4,0,1.1,0.7,1.1,1.1V501.8z"/>
	<path d="M264.6,504.9v-0.1c-1.9-1.3-2.9-3.2-2.9-5.7c0-2.6,1.5-4.8,3.1-6.3c-1.4-1.7-2.1-3.9-2.1-6.4c0-5.8,4.5-10.7,12.1-10.7
		c3.5,0,5.7,0.8,8,2.6h0.2c1.4-1.5,3-2.6,5.9-2.6c1,0,1.4,0.4,1.4,0.8v5.2c0,0.3-0.4,0.6-0.7,0.6c-0.3,0-0.5-0.1-1.1-0.1
		c-0.8,0-1.6,0.2-2.3,0.7c0.4,1.2,0.6,2.3,0.6,3.4c0,6.1-4.4,10.7-12,10.7c-2,0-3.7-0.4-5.3-1c-0.4,0.5-0.8,1.3-0.8,2.1
		c0,1.2,0.9,2,3.2,2h6.8c7.6,0,11.1,4.3,11.1,8.9c0,5.4-4.1,10.4-14.1,10.4h-0.3c-8.6,0-13.5-4-13.5-8.8
		C261.9,508.3,263.1,506.4,264.6,504.9z M271.8,506.6c-0.8,0.5-1.6,1.5-1.6,2.9c0,2,2.1,3.5,5.2,3.5h0.6c3.9,0,5.5-1.7,5.5-3.7
		c0-1.4-0.8-2.8-3.8-2.8H271.8z M274.7,490.6c2.6,0,4.4-1.9,4.4-4.1s-1.8-4.1-4.4-4.1s-4.4,1.9-4.4,4.1S272.1,490.6,274.7,490.6z"/>
	<path d="M300.4,480.1c2.5-3.2,5.3-4.3,8.4-4.3c5,0,8.1,3.2,8.1,9v2.7c0,0.4-0.7,1.1-1.1,1.1h-6.1c-0.4,0-1.1-0.7-1.1-1.1V486
		c0-2.1-1.2-3.2-2.9-3.2c-2.3,0-4.6,2.2-5.5,4.6v14.4c0,0.4-0.7,1.1-1.1,1.1h-6.1c-0.4,0-1.1-0.7-1.1-1.1v-24.2
		c0-0.4,0.7-1.1,1.1-1.1h5c1,0,1.4,2.3,1.9,3.7H300.4z"/>
	<path d="M326.7,491.9c0.5,3.4,3.8,4.6,8.1,4.6c2.8,0,5.8-1.1,8.1-2.5c0.5-0.3,1-0.5,1.5-0.5c0.4,0,0.9,0.2,1.2,0.7l1.6,3.2
		c0.2,0.4,0.3,0.7,0.3,1c0,0.5-0.3,0.8-0.8,1.3c-2.6,2.1-6.5,3.7-12.1,3.7c-9.2,0-16.2-5-16.2-13.9c0-7.7,5.8-13.9,15.3-13.9
		c9.8,0,14.4,5.6,14.4,12.2c0,2-0.3,3.9-0.3,3.9H326.7z M326.8,486.3h12.9c-0.1-2.3-2.1-4.3-6.1-4.3
		C330.4,482.1,327.6,483.5,326.8,486.3z M343.1,460.6c0.5,0.5,0.7,1,0.7,1.5c0,0.6-0.2,1.4-1,2.1l-7.2,6c-0.4,0.3-0.6,0.4-1.3,0.4
		h-3.1c-0.4,0-0.6-0.2-0.6-0.5c0-0.2,0.1-0.5,0.4-0.9l6.5-9.2c0.6-1,1.4-1.4,2.3-1.4c0.7,0,1.4,0.3,1.8,0.6L343.1,460.6z"/>
</g>
<g class="st4">
	<path class="st3" d="M175.7,560.7v8.8h22.7c0.4,0,0.9,0.5,0.9,0.9v5.5c0,0.4-0.5,0.9-0.9,0.9h-30.7c-0.4,0-0.8-0.4-0.8-0.8v-37.1
		c0-0.4,0.4-0.8,0.8-0.8H198c0.4,0,0.9,0.5,0.9,0.9v5.5c0,0.4-0.5,0.9-0.9,0.9h-22.3v7.9H196c0.4,0,0.9,0.5,0.9,0.9v5.5
		c0,0.4-0.5,0.9-0.9,0.9H175.7z M189.4,524.8c0.5,0.5,0.7,1,0.7,1.5c0,0.6-0.2,1.4-1,2.1l-7.2,6c-0.4,0.3-0.6,0.4-1.3,0.4h-3.1
		c-0.4,0-0.6-0.2-0.6-0.5c0-0.2,0.1-0.5,0.4-0.9l6.5-9.2c0.6-1,1.4-1.4,2.3-1.4c0.7,0,1.4,0.3,1.8,0.6L189.4,524.8z"/>
	<path class="st3" d="M202.6,551.5c0-0.4,0.7-1.1,1.1-1.1h4.8c0.6,0,1,0.4,1.2,1l0.8,2.1h0.3c2.8-3,5.8-3.7,8.6-3.7
		c3,0,6,1.6,7.5,4.2h0.2c2.7-2.9,5.9-4.2,9.4-4.2c6.2,0,9.4,4.1,9.4,10.3v15.7c0,0.4-0.7,1.1-1.1,1.1h-6.1c-0.4,0-1.1-0.7-1.1-1.1
		v-15.2c0-2.6-1.6-3.7-3.5-3.7c-2.4,0-4.8,1.8-5.8,4.4v14.5c0,0.4-0.7,1.1-1.1,1.1h-6.1c-0.4,0-1.1-0.7-1.1-1.1v-15.2
		c0-2.5-1.5-3.7-3.5-3.7c-2.4,0-4.8,1.8-5.8,4.4v14.5c0,0.4-0.7,1.1-1.1,1.1h-6.1c-0.4,0-1.1-0.7-1.1-1.1V551.5z"/>
	<path class="st3" d="M254,537.5c2.9,0,4.8,1.9,4.8,4.1s-1.9,4.1-4.8,4.1s-4.8-1.9-4.8-4.1S251.1,537.5,254,537.5z M258.1,575.8
		c0,0.4-0.7,1.1-1.1,1.1H251c-0.4,0-1.1-0.7-1.1-1.1v-24.2c0-0.4,0.7-1.1,1.1-1.1h6.1c0.4,0,1.1,0.7,1.1,1.1V575.8z"/>
	<path class="st3" d="M264.6,578.9v-0.1c-1.9-1.3-2.9-3.2-2.9-5.7c0-2.6,1.5-4.8,3.1-6.3c-1.4-1.7-2.1-3.9-2.1-6.4
		c0-5.8,4.5-10.7,12.1-10.7c3.5,0,5.7,0.8,8,2.6h0.2c1.4-1.5,3-2.6,5.9-2.6c1,0,1.4,0.4,1.4,0.8v5.2c0,0.3-0.4,0.6-0.7,0.6
		c-0.3,0-0.5-0.1-1.1-0.1c-0.8,0-1.6,0.2-2.3,0.7c0.4,1.2,0.6,2.3,0.6,3.4c0,6.1-4.4,10.7-12,10.7c-2,0-3.7-0.4-5.3-1
		c-0.4,0.5-0.8,1.3-0.8,2.1c0,1.2,0.9,2,3.2,2h6.8c7.6,0,11.1,4.3,11.1,8.9c0,5.4-4.1,10.4-14.1,10.4h-0.3c-8.6,0-13.5-4-13.5-8.8
		C261.9,582.3,263.1,580.4,264.6,578.9z M271.8,580.6c-0.8,0.5-1.6,1.5-1.6,2.9c0,2,2.1,3.5,5.2,3.5h0.6c3.9,0,5.5-1.7,5.5-3.7
		c0-1.4-0.8-2.8-3.8-2.8H271.8z M274.7,564.6c2.6,0,4.4-1.9,4.4-4.1s-1.8-4.1-4.4-4.1s-4.4,1.9-4.4,4.1S272.1,564.6,274.7,564.6z"/>
	<path class="st3" d="M300.4,554.1c2.5-3.2,5.3-4.3,8.4-4.3c5,0,8.1,3.2,8.1,9v2.7c0,0.4-0.7,1.1-1.1,1.1h-6.1
		c-0.4,0-1.1-0.7-1.1-1.1V560c0-2.1-1.2-3.2-2.9-3.2c-2.3,0-4.6,2.2-5.5,4.6v14.4c0,0.4-0.7,1.1-1.1,1.1h-6.1
		c-0.4,0-1.1-0.7-1.1-1.1v-24.2c0-0.4,0.7-1.1,1.1-1.1h5c1,0,1.4,2.3,1.9,3.7H300.4z"/>
	<path class="st3" d="M326.7,565.9c0.5,3.4,3.8,4.6,8.1,4.6c2.8,0,5.8-1.1,8.1-2.5c0.5-0.3,1-0.5,1.5-0.5c0.4,0,0.9,0.2,1.2,0.7
		l1.6,3.2c0.2,0.4,0.3,0.7,0.3,1c0,0.5-0.3,0.8-0.8,1.3c-2.6,2.1-6.5,3.7-12.1,3.7c-9.2,0-16.2-5-16.2-13.9
		c0-7.7,5.8-13.9,15.3-13.9c9.8,0,14.4,5.6,14.4,12.2c0,2-0.3,3.9-0.3,3.9H326.7z M326.8,560.3h12.9c-0.1-2.3-2.1-4.3-6.1-4.3
		C330.4,556.1,327.6,557.5,326.8,560.3z M343.1,534.6c0.5,0.5,0.7,1,0.7,1.5c0,0.6-0.2,1.4-1,2.1l-7.2,6c-0.4,0.3-0.6,0.4-1.3,0.4
		h-3.1c-0.4,0-0.6-0.2-0.6-0.5c0-0.2,0.1-0.5,0.4-0.9l6.5-9.2c0.6-1,1.4-1.4,2.3-1.4c0.7,0,1.4,0.3,1.8,0.6L343.1,534.6z"/>
</g>
<text transform="matrix(1 0 0 1 592.3086 327.8477)" class="st5 st1 st2">Émigré</text>
<text transform="matrix(1 0 0 1 592.3086 401.8477)" class="st3 st5 st1 st2">Émigré</text>
<text transform="matrix(1 0 0 1 466.3086 502.8477)" class="st6 st1 st2">Émigré</text>
<text transform="matrix(1 0 0 1 466.3086 576.8477)" class="st3 st6 st1 st2">Émigré</text>
<path id="SVGID_x5F_1_x5F_" class="st7" d="M405,231c30-29,81-29,109,0"/>
<text transform="matrix(0.7854 -0.6189 0.6189 0.7854 409.3279 227.1082)" class="st8 st9"> </text>
<text transform="matrix(0.8228 -0.5683 0.5683 0.8228 411.923 225.009)" class="st0 st10 st11"> </text>
<text transform="matrix(0.7819 -0.6235 0.6235 0.7819 401.8702 233.0664)" class="st0 st12 st11">É</text>
<text transform="matrix(0.8283 -0.5603 0.5603 0.8283 403.3593 230.7607)" class="st0 st10 st11">m</text>
<text transform="matrix(0.8278 -0.561 0.561 0.8278 411.0013 225.5967)" class="st0 st10 st11">i</text>
<text transform="matrix(0.7856 -0.6187 0.6187 0.7856 403.7421 231.5072)" class="st0 st10 st11">g</text>
<text transform="matrix(0.7583 -0.6519 0.6519 0.7583 402.8797 232.656)" class="st0 st10 st11">r</text>
<text transform="matrix(0.7256 -0.6881 0.6881 0.7256 399.4249 236.2818)" class="st0 st10 st11">é</text>
<text class="st8 st13"> </text>
<g>
	<polygon class="st14" points="508.2,224 509.2,224.5 512.5,226.1 509.6,232 531.1,224.8 524,203.3 521,209.1 517.7,207.5 
		516.8,207 	"/>
</g>
<g>
	<polyline class="st15" points="377.3,166.8 380.6,165 381.5,164.5 372.3,147.8 371.4,148.3 368.1,150.1 	"/>
</g>
</svg>
