<svg width="816px" height="297px" viewBox="0 0 816 297" version="1.1" xmlns="http://www.w3.org/2000/svg" xmlns:xlink="http://www.w3.org/1999/xlink">
    <defs>
        <polygon id="path-1" points="218.6429 0.786 0.2799 0.786 0.2799 194.5169 218.6429 194.5169 218.6429 0.786"></polygon>
    </defs>
    <g id="Page-1" stroke="none" stroke-width="1" fill="none" fill-rule="evenodd">
        <g id="now2" transform="translate(0.000000, -1.000000)">
            <path d="M179.6373,16.2619 L180.8823,140.0889 L175.6513,140.0889 L88.6973,16.2619 L0.0003,16.2619 L0.0003,182.4449 L51.5733,182.4449 L50.3263,58.3679 L55.8103,58.3679 L143.2613,182.4449 L231.2133,182.4449 L231.2133,16.2619 L179.6373,16.2619 Z M175.6513,148.0649 L180.8823,148.0649 L188.9383,148.0649 L188.8573,140.0089 L187.6943,24.2379 L223.2373,24.2379 L223.2373,174.4689 L147.3973,174.4689 L62.3293,53.7719 L59.9463,50.3919 L55.8103,50.3919 L50.3263,50.3919 L42.2693,50.3919 L42.3503,58.4479 L43.5173,174.4689 L7.9763,174.4689 L7.9763,24.2379 L84.5533,24.2379 L169.1233,144.6719 L171.5053,148.0649 L175.6513,148.0649 Z" id="Fill-1" fill="#36D2CE"></path>
            <path d="M762.0057,16.2619 L717.1577,140.5869 L707.6907,140.5869 L669.8197,16.2619 L608.7777,16.2619 L571.1547,140.5869 L561.9377,140.5869 L517.3377,16.2619 L465.7617,16.2619 L528.3007,182.4449 L606.7847,182.4449 L639.6727,60.6089 L673.0567,182.4449 L751.0427,182.4449 L815.5717,16.2619 L762.0057,16.2619 Z M707.6907,147.1249 L717.1577,147.1249 L721.7497,147.1249 L723.3077,142.8059 L766.5967,22.7999 L806.0207,22.7999 L746.5677,175.9079 L678.0437,175.9079 L645.9787,58.8809 L639.6267,35.6969 L633.3617,58.9049 L601.7777,175.9079 L532.8257,175.9079 L475.2077,22.7999 L512.7377,22.7999 L555.7847,142.7949 L557.3377,147.1249 L561.9377,147.1249 L571.1547,147.1249 L576.0067,147.1249 L577.4117,142.4809 L613.6297,22.7999 L664.9767,22.7999 L701.4367,142.4919 L702.8477,147.1249 L707.6907,147.1249 Z" id="Fill-2" fill="#36D2CE"></path>
            <polygon id="Fill-3" fill="#36D2CE" points="0.305 233.28 808.029 233.28 808.029 219.224 0.305 219.224"></polygon>
            <polygon id="Fill-4" fill="#36D2CE" points="0.305 249.264 808.029 249.264 808.029 237.421 0.305 237.421"></polygon>
            <polygon id="Fill-5" fill="#36D2CE" points="0.305 265.247 808.029 265.247 808.029 255.617 0.305 255.617"></polygon>
            <polygon id="Fill-6" fill="#36D2CE" points="0.305 281.231 808.029 281.231 808.029 273.814 0.305 273.814"></polygon>
            <polygon id="Fill-7" fill="#36D2CE" points="0.305 297.214 808.029 297.214 808.029 292.011 0.305 292.011"></polygon>
            <g id="Group-10" transform="translate(248.000000, 0.214000)">
                <mask id="mask-2" fill="white">
                    <use xlink:href="#path-1"></use>
                </mask>
                <g id="Clip-9"></g>
                <path d="M173.9279,169.4549 C171.5429,167.9029 169.1029,166.4439 166.6109,165.0789 C180.0929,148.2099 188.5659,125.4229 189.1189,100.2659 L213.3369,100.2659 C212.4399,128.2729 197.2319,153.1629 173.9279,169.4549 L173.9279,169.4549 Z M163.1729,169.1559 C165.2009,170.2409 167.1949,171.3899 169.1509,172.6039 C162.3189,176.8439 154.8889,180.3739 146.9889,183.0799 C152.8589,179.2569 158.2949,174.5729 163.1729,169.1559 L163.1729,169.1559 Z M49.7759,172.6059 C51.7309,171.3929 53.7189,170.2369 55.7459,169.1529 C60.6249,174.5699 66.0619,179.2559 71.9329,183.0799 C64.0349,180.3749 56.6059,176.8459 49.7759,172.6059 L49.7759,172.6059 Z M5.5849,100.2659 L29.8039,100.2659 C30.3569,125.4219 38.8299,148.2089 52.3109,165.0779 C49.8189,166.4429 47.3779,167.9009 44.9929,169.4539 C21.6899,153.1619 6.4819,128.2719 5.5849,100.2659 L5.5849,100.2659 Z M45.9359,25.1949 C48.2419,26.6629 50.5989,28.0459 53.0039,29.3399 C39.1149,46.2909 30.3669,69.4439 29.8039,95.0359 L5.5849,95.0359 C6.4939,66.6539 22.1009,41.4709 45.9359,25.1949 L45.9359,25.1949 Z M56.5399,25.2979 C54.5889,24.2759 52.6639,23.2069 50.7789,22.0669 C57.3299,18.1029 64.4239,14.7949 71.9329,12.2219 C66.3749,15.8419 61.2149,20.2439 56.5399,25.2979 L56.5399,25.2979 Z M168.1339,22.0609 C166.2509,23.1999 164.3289,24.2739 162.3799,25.2949 C157.7059,20.2419 152.5459,15.8419 146.9889,12.2219 C154.4949,14.7939 161.5859,18.0989 168.1339,22.0609 L168.1339,22.0609 Z M148.5069,95.0359 C148.3029,75.4229 145.8439,56.7619 141.3149,40.9399 C141.1499,40.3639 140.9799,39.7999 140.8109,39.2349 C147.8429,37.3709 154.6469,34.8719 161.1449,31.7619 C174.7089,47.8719 183.3199,70.2309 183.8889,95.0359 L148.5069,95.0359 Z M141.1819,154.8899 C145.6379,139.6009 148.3099,120.8279 148.5209,100.2659 L183.8889,100.2659 C183.3309,124.6059 175.0389,146.6029 161.9129,162.6399 C155.2989,159.4099 148.3639,156.8169 141.1819,154.8899 L141.1819,154.8899 Z M139.6299,159.8869 C146.0919,161.6079 152.3469,163.8899 158.3309,166.7149 C148.8159,176.9199 137.1939,184.2219 124.3709,187.4399 C130.3729,181.4649 135.5929,171.9599 139.6299,159.8869 L139.6299,159.8869 Z M79.3129,159.8769 C83.4139,172.2079 88.6169,181.5659 94.4919,187.4269 C81.6929,184.2009 70.0929,176.9059 60.5929,166.7179 C66.5839,163.8889 72.8429,161.5979 79.3129,159.8769 L79.3129,159.8769 Z M70.3959,100.2659 C70.6009,120.1409 73.1349,138.9449 77.7649,154.8789 C70.5729,156.8059 63.6289,159.4009 57.0059,162.6369 C43.8819,146.5999 35.5919,124.6039 35.0329,100.2659 L70.3959,100.2659 Z M78.1029,39.2389 C77.6139,40.8779 77.1429,42.5639 76.6899,44.2969 C72.7489,59.3699 70.6039,76.8649 70.4129,95.0359 L35.0329,95.0359 C35.6029,70.2329 44.2119,47.8739 57.7749,31.7639 C64.2719,34.8749 71.0719,37.3759 78.1029,39.2389 L78.1029,39.2389 Z M79.6979,34.2539 C73.3899,32.5969 67.2709,30.4189 61.4099,27.7139 C70.7269,18.0099 81.9899,11.0539 94.3779,7.9069 C88.7179,13.5739 83.7119,22.4999 79.6979,34.2539 L79.6979,34.2539 Z M124.4699,7.8859 C136.8829,11.0229 148.1699,17.9859 157.5029,27.7039 C151.6409,30.4089 145.5229,32.5929 139.2149,34.2489 C135.1839,22.5009 130.1449,13.5569 124.4699,7.8859 L124.4699,7.8859 Z M112.0759,38.0139 L112.0759,6.3209 C120.3419,8.1659 128.2589,18.6649 134.1039,35.4799 C126.9499,37.0089 119.5759,37.8519 112.0759,38.0139 L112.0759,38.0139 Z M112.0759,150.8039 L112.0759,100.2659 L143.2909,100.2659 C143.0729,120.1469 140.3809,138.6719 136.0359,153.6239 C128.2739,151.9099 120.2529,150.9719 112.0759,150.8039 L112.0759,150.8039 Z M112.0759,188.9659 L112.0759,156.0339 C119.7209,156.1979 127.2169,157.0699 134.4789,158.6439 C128.7929,175.6529 120.8409,187.0509 112.0759,188.9659 L112.0759,188.9659 Z M106.8459,156.0339 L106.8459,188.9799 C98.4179,187.0819 90.2969,176.1199 84.4169,158.6499 C91.6859,157.0729 99.1909,156.1979 106.8459,156.0339 L106.8459,156.0339 Z M106.8459,100.2659 L106.8459,150.8039 C98.6529,150.9719 90.6209,151.9149 82.8479,153.6339 C78.3149,138.1199 75.8309,119.7389 75.6259,100.2659 L106.8459,100.2659 Z M106.8459,6.3299 L106.8459,38.0139 C99.3439,37.8519 91.9739,37.0089 84.8249,35.4819 C90.6429,18.8299 98.6169,8.2089 106.8459,6.3299 L106.8459,6.3299 Z M83.1989,40.4819 C90.8709,42.1569 98.7869,43.0769 106.8459,43.2439 L106.8459,95.0359 L75.6429,95.0359 C75.8329,77.3089 77.9189,60.2699 81.7489,45.6189 C82.2099,43.8559 82.6949,42.1469 83.1989,40.4819 L83.1989,40.4819 Z M136.2859,42.3799 C140.6849,57.7439 143.0739,75.9059 143.2769,95.0359 L112.0759,95.0359 L112.0759,43.2439 C120.1319,43.0769 128.0479,42.1499 135.7239,40.4729 C135.9139,41.1019 136.1019,41.7359 136.2859,42.3799 L136.2859,42.3799 Z M213.3369,95.0359 L189.1189,95.0359 C188.5559,69.4459 179.8089,46.2949 165.9219,29.3449 C168.3269,28.0499 170.6849,26.6669 172.9919,25.1989 C196.8239,41.4749 212.4279,66.6559 213.3369,95.0359 L213.3369,95.0359 Z M218.6429,97.6509 C218.6429,44.3319 169.8299,0.9429 109.7679,0.7949 C109.6649,0.7949 109.5639,0.7859 109.4609,0.7859 C109.3579,0.7859 109.2569,0.7949 109.1539,0.7949 C49.0929,0.9429 0.2799,44.3319 0.2799,97.6509 C0.2799,150.9699 49.0929,194.3589 109.1539,194.5069 C109.2569,194.5079 109.3579,194.5169 109.4609,194.5169 C109.5639,194.5169 109.6649,194.5079 109.7679,194.5069 C169.8299,194.3589 218.6429,150.9699 218.6429,97.6509 L218.6429,97.6509 Z" id="Fill-8" fill="#36D2CE" mask="url(#mask-2)"></path>
            
                        </g>
        
                        </g>
    
                        </g>

                    </svg>
